<svg xmlns="http://www.w3.org/2000/svg" version="1.1" xmlns:xlink="http://www.w3.org/1999/xlink" xmlns:svgjs="http://svgjs.dev/svgjs" width="1440" height="560" preserveAspectRatio="none" viewBox="0 0 1440 560"><g mask="url(&quot;#SvgjsMask1000&quot;)" fill="none"><rect width="1440" height="560" x="0" y="0" fill="#0e2a47"></rect><path d="M-15.04 285.97 a18.93 18.93 0 1 0 37.86 0 a18.93 18.93 0 1 0 -37.86 0z" fill="#e73635"></path><path d="M82.39 548.4 a48.97 48.97 0 1 0 97.94 0 a48.97 48.97 0 1 0 -97.94 0z" fill="#e73635"></path><path d="M869.22 73.01a44.31 44.31 0 1 0-64.09-61.2z" fill="#d3b714"></path><path d="M1099.87 477.35L1111.13 477.35L1111.13 488.61L1099.87 488.61z" fill="#e73635"></path><path d="M813.67 174.91 a29.7 29.7 0 1 0 59.4 0 a29.7 29.7 0 1 0 -59.4 0z" fill="#e73635"></path><path d="M1334.44 412.69a8.87 8.87 0 1 0-17.37 3.59z" fill="#d3b714"></path><path d="M970.33 58.77a52.85 52.85 0 1 0-55.59 89.9z" stroke="#d3b714"></path><path d="M1393.14 431.4 a12.87 12.87 0 1 0 25.74 0 a12.87 12.87 0 1 0 -25.74 0z" stroke="#e73635"></path><path d="M756.42 255.18L757.74 255.18L757.74 272.06L756.42 272.06z" fill="#d3b714"></path><path d="M1189.06 5.65a15.87 15.87 0 1 0 15.62 27.63z" stroke="#d3b714"></path><path d="M311.32 64.9L325.26 64.9L325.26 78.84L311.32 78.84z" stroke="#037b0b"></path><path d="M241.12 410.03L273.98 410.03L273.98 442.89L241.12 442.89z" stroke="#d3b714"></path><path d="M561.4 446.72L572.59 446.72L572.59 457.91L561.4 457.91z" fill="#d3b714"></path><path d="M1199.4 304.59a47.17 47.17 0 1 0 62.13-70.99z" fill="#d3b714"></path><path d="M42.47 299.32L47.92 299.32L47.92 304.77L42.47 304.77z" fill="#d3b714"></path><path d="M1132.62 287.17L1169.06 287.17L1169.06 294.57L1132.62 294.57z" fill="#e73635"></path><path d="M954.49 337.21 a29.54 29.54 0 1 0 59.08 0 a29.54 29.54 0 1 0 -59.08 0z" stroke="#d3b714"></path><path d="M383.75 360.04 a38.31 38.31 0 1 0 76.62 0 a38.31 38.31 0 1 0 -76.62 0z" stroke="#d3b714"></path><path d="M462.91 224.58L505.01 224.58L505.01 232.53L462.91 232.53z" fill="#d3b714"></path><path d="M505.63 51.91a29.19 29.19 0 1 0 43.98-38.39z" fill="#037b0b"></path><path d="M1373.37 94.25a9.13 9.13 0 1 0 17.94-3.42z" stroke="#d3b714"></path><path d="M1050.35 386.96 a45.17 45.17 0 1 0 90.34 0 a45.17 45.17 0 1 0 -90.34 0z" fill="#d3b714"></path><path d="M229.59 321.88 a3.02 3.02 0 1 0 6.04 0 a3.02 3.02 0 1 0 -6.04 0z" fill="#e73635"></path><path d="M622.49 514.72L674.24 514.72L674.24 554.29L622.49 554.29z" fill="#e73635"></path><path d="M255.76 306.33a49.45 49.45 0 1 0-62.25-76.85z" stroke="#037b0b"></path><path d="M1316.49 123.14L1358.31 123.14L1358.31 170.17L1316.49 170.17z" stroke="#037b0b"></path><path d="M200.73 532.76L209.22 532.76L209.22 553.17L200.73 553.17z" stroke="#d3b714"></path><path d="M319.13 402.84L364.27 402.84L364.27 447.98L319.13 447.98z" fill="#e73635"></path><path d="M0.09 136.29 a35.69 35.69 0 1 0 71.38 0 a35.69 35.69 0 1 0 -71.38 0z" stroke="#037b0b"></path><path d="M1376.33 267.78L1415.6 267.78L1415.6 278.03L1376.33 278.03z" stroke="#e73635"></path><path d="M72.81 210.78a15.14 15.14 0 1 0-8.21-29.15z" fill="#e73635"></path><path d="M1375.67 481.2 a47.28 47.28 0 1 0 94.56 0 a47.28 47.28 0 1 0 -94.56 0z" fill="#e73635"></path><path d="M89.17 270.55a18.24 18.24 0 1 0-34.51 11.83z" fill="#037b0b"></path></g><defs><mask id="SvgjsMask1000"><rect width="1440" height="560" fill="#ffffff"></rect></mask></defs></svg>